<svg height="512" viewBox="0 0 64 64" width="512" xmlns="http://www.w3.org/2000/svg"><g id="Mobile_Game" data-name="Mobile Game"><path d="m49 7a3 3 0 0 0 -3-3h-5v1a3 3 0 0 1 -3 3h-12a3 3 0 0 1 -3-3v-1h-5a3 3 0 0 0 -3 3v50a3 3 0 0 0 3 3h28a3 3 0 0 0 3-3zm-12.223 18.637-6.363 6.363 6.363 6.363a1 1 0 0 1 0 1.414 11 11 0 1 1 0-15.554 1 1 0 0 1 0 1.414zm.223 5.363v2h-2v-2zm4 2h-2v-2h2zm4 0h-2v-2h2z"/><path d="m20 32a9 9 0 0 0 14.617 7.031l-6.324-6.324a1 1 0 0 1 0-1.414l6.324-6.324a9 9 0 0 0 -14.617 7.031zm9-5h-2v-2h2z"/><path d="m26 6h12a1 1 0 0 0 1-1v-1h-14v1a1 1 0 0 0 1 1z"/></g></svg>