<svg xmlns="http://www.w3.org/2000/svg" height="511pt" version="1.1" viewBox="-33 1 511 511.999" width="511pt">
<g id="surface1">
<path d="M 364.550781 177.910156 C 362.785156 172.480469 358.089844 168.523438 352.441406 167.703125 L 282.535156 157.546875 L 251.269531 94.199219 C 248.742188 89.078125 243.527344 85.835938 237.816406 85.835938 C 232.105469 85.835938 226.894531 89.078125 224.367188 94.199219 L 193.101562 157.546875 L 123.195312 167.703125 C 117.542969 168.523438 112.851562 172.480469 111.085938 177.910156 C 109.320312 183.34375 110.792969 189.304688 114.878906 193.289062 L 165.464844 242.601562 L 153.523438 312.226562 C 152.558594 317.855469 154.871094 323.542969 159.492188 326.898438 C 164.109375 330.253906 170.234375 330.695312 175.289062 328.039062 L 237.816406 295.167969 L 300.34375 328.039062 C 302.539062 329.195312 304.9375 329.765625 307.324219 329.765625 C 307.34375 329.765625 307.363281 329.765625 307.382812 329.765625 C 315.648438 329.742188 322.34375 323.035156 322.34375 314.765625 C 322.34375 313.613281 322.214844 312.492188 321.96875 311.414062 L 310.167969 242.601562 L 360.753906 193.289062 C 364.84375 189.304688 366.3125 183.34375 364.550781 177.910156 Z M 283.578125 226.621094 C 280.042969 230.066406 278.429688 235.03125 279.265625 239.898438 L 287.402344 287.34375 L 244.796875 264.941406 C 242.609375 263.792969 240.214844 263.21875 237.816406 263.21875 C 235.421875 263.21875 233.023438 263.792969 230.835938 264.941406 L 188.230469 287.34375 L 196.367188 239.898438 C 197.203125 235.03125 195.589844 230.066406 192.054688 226.621094 L 157.585938 193.023438 L 205.21875 186.101562 C 210.105469 185.390625 214.328125 182.324219 216.515625 177.894531 L 237.816406 134.730469 L 259.121094 177.894531 C 261.308594 182.324219 265.53125 185.390625 270.417969 186.101562 L 318.050781 193.023438 Z M 283.578125 226.621094 " style=" stroke:none;fill-rule:nonzero;fill:rgb(0%,0%,0%);fill-opacity:1;" />
<path d="M 237.816406 0 C 124.082031 0 31.394531 91.835938 30.03125 205.253906 L 5.292969 277.40625 C -1.5 297.226562 -1.054688 314.671875 6.515625 325.273438 C 11.054688 331.625 18.058594 335.265625 25.738281 335.265625 L 30.015625 335.265625 L 30.015625 360.433594 C 30.015625 390.851562 54.765625 415.597656 85.183594 415.597656 C 99.0625 415.597656 110.351562 426.890625 110.351562 440.765625 L 110.351562 456.832031 C 110.351562 487.25 135.097656 512 165.515625 512 L 277.984375 512 C 308.402344 512 333.152344 487.25 333.152344 456.832031 L 333.152344 392.449219 C 365.011719 375.984375 392.074219 351.578125 411.820312 321.40625 C 433.929688 287.621094 445.617188 248.339844 445.617188 207.796875 C 445.617188 93.21875 352.398438 0 237.816406 0 Z M 311.890625 369.449219 C 306.5625 371.894531 303.148438 377.222656 303.148438 383.082031 L 303.148438 456.832031 C 303.148438 470.710938 291.859375 482 277.984375 482 L 165.515625 482 C 151.640625 482 140.351562 470.710938 140.351562 456.832031 L 140.351562 440.765625 C 140.351562 410.347656 115.601562 385.601562 85.183594 385.601562 C 71.304688 385.601562 60.015625 374.308594 60.015625 360.433594 L 60.015625 320.265625 C 60.015625 311.984375 53.300781 305.265625 45.015625 305.265625 L 30.582031 305.265625 C 30.328125 301.917969 30.6875 295.847656 33.671875 287.136719 L 59.207031 212.664062 C 59.742188 211.097656 60.015625 209.453125 60.015625 207.800781 C 60.015625 109.761719 139.777344 30 237.816406 30 C 335.855469 30 415.617188 109.761719 415.617188 207.800781 C 415.617188 277.070312 374.902344 340.523438 311.890625 369.449219 Z M 311.890625 369.449219 " style=" stroke:none;fill-rule:nonzero;fill:rgb(0%,0%,0%);fill-opacity:1;" />
</g>
</svg>