<svg xmlns="http://www.w3.org/2000/svg" height="511pt" version="1.1" viewBox="-33 1 511 511.999" width="511pt">
<g id="surface1">
<path d="M 237.816406 0 C 124.082031 0 31.394531 91.835938 30.03125 205.253906 L 5.292969 277.40625 C -1.5 297.226562 -1.054688 314.671875 6.515625 325.273438 C 11.054688 331.625 18.058594 335.265625 25.738281 335.265625 L 30.015625 335.265625 L 30.015625 360.433594 C 30.015625 390.851562 54.765625 415.597656 85.183594 415.597656 C 99.0625 415.597656 110.351562 426.890625 110.351562 440.765625 L 110.351562 456.832031 C 110.351562 487.25 135.097656 512 165.515625 512 L 277.984375 512 C 308.402344 512 333.152344 487.25 333.152344 456.832031 L 333.152344 392.449219 C 365.011719 375.984375 392.074219 351.578125 411.820312 321.40625 C 433.929688 287.621094 445.621094 248.339844 445.621094 207.796875 C 445.617188 93.21875 352.398438 0 237.816406 0 Z M 360.753906 193.289062 L 310.167969 242.601562 L 321.96875 311.414062 C 322.214844 312.488281 322.347656 313.613281 322.347656 314.765625 C 322.347656 323.035156 315.652344 329.742188 307.382812 329.765625 C 307.363281 329.765625 307.34375 329.765625 307.324219 329.765625 C 304.9375 329.765625 302.539062 329.195312 300.347656 328.039062 L 237.816406 295.167969 L 175.289062 328.039062 C 170.234375 330.695312 164.109375 330.257812 159.492188 326.898438 C 154.875 323.542969 152.558594 317.855469 153.523438 312.226562 L 165.464844 242.601562 L 114.882812 193.289062 C 110.792969 189.304688 109.320312 183.34375 111.085938 177.910156 C 112.851562 172.480469 117.542969 168.523438 123.195312 167.703125 L 193.101562 157.546875 L 224.367188 94.199219 C 226.890625 89.078125 232.105469 85.835938 237.816406 85.835938 C 243.527344 85.835938 248.742188 89.078125 251.269531 94.199219 L 282.535156 157.546875 L 352.441406 167.703125 C 358.089844 168.523438 362.785156 172.480469 364.550781 177.910156 C 366.3125 183.34375 364.84375 189.304688 360.753906 193.289062 Z M 360.753906 193.289062 " style=" stroke:none;fill-rule:nonzero;fill:rgb(0%,0%,0%);fill-opacity:1;" />
</g>
</svg>