<?xml version="1.0"?>
<svg xmlns="http://www.w3.org/2000/svg" viewBox="0 0 64 64" width="512" height="512"><g id="Outline"><path d="M52.515,38.143l-4.526-2.715A2.988,2.988,0,0,0,46.446,35H33V33h1a4,4,0,0,0,0-8H33V23h1a4,4,0,0,0,0-8H33V13h8a1,1,0,0,0,0-2H30a2,2,0,0,1,0-4H46.446a1,1,0,0,1,.514.143L50.056,9l-3.095,1.857a1.007,1.007,0,0,1-.515.143H45a1,1,0,0,0,0,2h1.446a2.994,2.994,0,0,0,1.544-.428l4.525-2.715a1,1,0,0,0,0-1.714L47.989,5.428A2.988,2.988,0,0,0,46.446,5H33V3a1,1,0,0,0-2,0V5H30a4,4,0,0,0,0,8h1v2H17.554a2.994,2.994,0,0,0-1.544.428l-4.525,2.715a1,1,0,0,0,0,1.714l4.526,2.715A2.988,2.988,0,0,0,17.554,23H31v2H17.554a2.994,2.994,0,0,0-1.544.428l-4.525,2.715a1,1,0,0,0,0,1.714l4.526,2.715A2.988,2.988,0,0,0,17.554,33H31v2H30a4,4,0,0,0,0,8h1V58H26a1,1,0,0,0-1,1v2a1,1,0,0,0,2,0V60H37v1a1,1,0,0,0,2,0V59a1,1,0,0,0-1-1H33V43H46.446a2.994,2.994,0,0,0,1.544-.428l4.525-2.715a1,1,0,0,0,0-1.714ZM17.04,20.857,13.944,19l3.1-1.857A1.007,1.007,0,0,1,17.554,17H34a2,2,0,0,1,0,4H17.554A1,1,0,0,1,17.04,20.857Zm0,10L13.944,29l3.1-1.857A1.007,1.007,0,0,1,17.554,27H34a2,2,0,0,1,0,4H17.554A1,1,0,0,1,17.04,30.857Zm29.921,10a1.007,1.007,0,0,1-.515.143H30a2,2,0,0,1,0-4H46.446a1,1,0,0,1,.514.143L50.056,39Z"/></g></svg>
