<svg height="448pt" viewBox="0 0 448 448.09142" width="448pt" xmlns="http://www.w3.org/2000/svg"><path d="m352.046875 128c-53.019531 0-96 42.980469-96 96s42.980469 96 96 96 96-42.980469 96-96c-.058594-52.996094-43.003906-95.941406-96-96zm0 32c-35.347656 0-64 28.652344-64 64s28.652344 64 64 64v16c-44.183594 0-80-35.816406-80-80s35.816406-80 80-80zm0 0"/><path d="m112.046875 216v-71.558594c-37.457031 4.191406-65.34375 36.558594-63.945313 74.226563 1.398438 37.664062 31.613282 67.875 69.277344 69.277343 37.664063 1.398438 70.035156-26.488281 74.226563-63.945312h-71.558594c-4.417969 0-8-3.582031-8-8zm0 0"/><path d="m.046875 0h384.007813v48h-384.007813zm0 0"/><path d="m336.046875 432c0 8.835938 7.164063 16 16 16s16-7.164062 16-16v-72h-32zm0 0"/><path d="m352.046875 336c-2.707031 0-5.34375-.214844-8-.40625v8.40625h16v-8.40625c-2.65625.191406-5.296875.40625-8 .40625zm0 0"/><path d="m152.046875 120.441406v63.558594h63.558594c-3.792969-33.40625-30.152344-59.769531-63.558594-63.558594zm0 0"/><path d="m328.046875 333.34375c-59.246094-12.515625-97.78125-69.894531-86.953125-129.472656 10.832031-59.574219 67.09375-99.722656 126.953125-90.589844v-49.28125h-352v288h304c0-4.417969 3.582031-8 8-8zm-208-29.34375c-48.601563 0-88-39.398438-88-88s39.398437-88 88-88c4.417969 0 8 3.582031 8 8v72h72c4.417969 0 8 3.582031 8 8-.058594 48.578125-39.425781 87.941406-88 88zm104-104h-80c-4.417969 0-8-3.582031-8-8v-80c0-4.417969 3.582031-8 8-8 48.574219.058594 87.941406 39.421875 88 88 0 4.417969-3.582031 8-8 8zm0 0"/><path d="m200.046875 401.464844v-41.464844h-16v41.464844c-11.023437 3.894531-17.632813 15.164062-15.65625 26.683594 1.976563 11.523437 11.964844 19.941406 23.65625 19.941406 11.6875 0 21.675781-8.417969 23.652344-19.941406 1.976562-11.519532-4.632813-22.789063-15.652344-26.683594zm0 0"/></svg>